<svg width="26" height="26" viewBox="0 0 26 26" fill="none" xmlns="http://www.w3.org/2000/svg">
<path d="M24.125 0.500061H1.875C1.51033 0.500061 1.16059 0.644927 0.902728 0.902789C0.644866 1.16065 0.5 1.51039 0.5 1.87506V24.1251C0.5 24.3056 0.535566 24.4844 0.604666 24.6513C0.673766 24.8181 0.775048 24.9697 0.902728 25.0973C1.03041 25.225 1.18199 25.3263 1.34881 25.3954C1.51563 25.4645 1.69443 25.5001 1.875 25.5001H13.85V15.8126H10.6V12.0626H13.85V9.25006C13.7827 8.58976 13.8606 7.92272 14.0784 7.29573C14.2962 6.66875 14.6485 6.09699 15.1106 5.62058C15.5727 5.14416 16.1335 4.77461 16.7535 4.53786C17.3736 4.30111 18.038 4.20288 18.7 4.25006C19.6729 4.24407 20.6454 4.29416 21.6125 4.40006V7.77506H19.625C18.05 7.77506 17.75 8.52506 17.75 9.61256V12.0251H21.5L21.0125 15.7751H17.75V25.5001H24.125C24.3056 25.5001 24.4844 25.4645 24.6512 25.3954C24.818 25.3263 24.9696 25.225 25.0973 25.0973C25.225 24.9697 25.3262 24.8181 25.3953 24.6513C25.4644 24.4844 25.5 24.3056 25.5 24.1251V1.87506C25.5 1.69449 25.4644 1.51569 25.3953 1.34887C25.3262 1.18205 25.225 1.03047 25.0973 0.902789C24.9696 0.775109 24.818 0.673827 24.6512 0.604727C24.4844 0.535627 24.3056 0.500061 24.125 0.500061Z" fill="white"/>
</svg>
