<svg width="26" height="26" viewBox="0 0 26 26" fill="none" xmlns="http://www.w3.org/2000/svg">
<path d="M19.675 4.82512C19.3783 4.82512 19.0883 4.9131 18.8416 5.07792C18.595 5.24274 18.4027 5.47701 18.2892 5.7511C18.1756 6.02519 18.1459 6.32679 18.2038 6.61776C18.2617 6.90873 18.4046 7.176 18.6143 7.38578C18.8241 7.59556 19.0914 7.73842 19.3824 7.7963C19.6733 7.85418 19.9749 7.82447 20.249 7.71094C20.5231 7.59741 20.7574 7.40515 20.9222 7.15848C21.087 6.91181 21.175 6.6218 21.175 6.32512C21.175 5.9273 21.017 5.54577 20.7357 5.26446C20.4544 4.98316 20.0728 4.82512 19.675 4.82512ZM25.425 7.85012C25.4007 6.813 25.2064 5.78688 24.85 4.81262C24.5322 3.97904 24.0375 3.22422 23.4 2.60012C22.781 1.9594 22.0245 1.46784 21.1875 1.16262C20.2158 0.795323 19.1886 0.596635 18.15 0.575122C16.825 0.500122 16.4 0.500122 13 0.500122C9.6 0.500122 9.175 0.500122 7.85 0.575122C6.81144 0.596635 5.78418 0.795323 4.8125 1.16262C3.9771 1.47093 3.22117 1.96207 2.6 2.60012C1.95928 3.21909 1.46772 3.97567 1.1625 4.81262C0.795201 5.7843 0.596513 6.81156 0.575 7.85012C0.5 9.17512 0.5 9.60012 0.5 13.0001C0.5 16.4001 0.5 16.8251 0.575 18.1501C0.596513 19.1887 0.795201 20.2159 1.1625 21.1876C1.46772 22.0246 1.95928 22.7812 2.6 23.4001C3.22117 24.0382 3.9771 24.5293 4.8125 24.8376C5.78418 25.2049 6.81144 25.4036 7.85 25.4251C9.175 25.5001 9.6 25.5001 13 25.5001C16.4 25.5001 16.825 25.5001 18.15 25.4251C19.1886 25.4036 20.2158 25.2049 21.1875 24.8376C22.0245 24.5324 22.781 24.0408 23.4 23.4001C24.0403 22.7784 24.5354 22.0229 24.85 21.1876C25.2064 20.2134 25.4007 19.1873 25.425 18.1501C25.425 16.8251 25.5 16.4001 25.5 13.0001C25.5 9.60012 25.5 9.17512 25.425 7.85012ZM23.175 18.0001C23.1659 18.7936 23.0222 19.5798 22.75 20.3251C22.5504 20.8691 22.2299 21.3607 21.8125 21.7626C21.4071 22.1758 20.9165 22.4957 20.375 22.7001C19.6296 22.9723 18.8435 23.116 18.05 23.1251C16.8 23.1876 16.3375 23.2001 13.05 23.2001C9.7625 23.2001 9.3 23.2001 8.05 23.1251C7.22611 23.1406 6.40574 23.0137 5.625 22.7501C5.10723 22.5352 4.6392 22.2161 4.25 21.8126C3.83511 21.4111 3.51855 20.9191 3.325 20.3751C3.01982 19.6191 2.85055 18.8151 2.825 18.0001C2.825 16.7501 2.75 16.2876 2.75 13.0001C2.75 9.71262 2.75 9.25012 2.825 8.00012C2.8306 7.18894 2.97869 6.38505 3.2625 5.62512C3.48256 5.09751 3.82033 4.6272 4.25 4.25012C4.62977 3.82033 5.09911 3.47899 5.625 3.25012C6.38694 2.97518 7.19 2.83147 8 2.82512C9.25 2.82512 9.7125 2.75012 13 2.75012C16.2875 2.75012 16.75 2.75012 18 2.82512C18.7935 2.83422 19.5796 2.97793 20.325 3.25012C20.893 3.46094 21.4029 3.80368 21.8125 4.25012C22.2221 4.6341 22.5422 5.10354 22.75 5.62512C23.0278 6.38629 23.1716 7.18985 23.175 8.00012C23.2375 9.25012 23.25 9.71262 23.25 13.0001C23.25 16.2876 23.2375 16.7501 23.175 18.0001ZM13 6.58762C11.7323 6.59009 10.4937 6.96828 9.44082 7.6744C8.38793 8.38051 7.56797 9.38287 7.08454 10.5548C6.60111 11.7268 6.47591 13.0157 6.72474 14.2588C6.97358 15.5019 7.5853 16.6433 8.4826 17.5388C9.3799 18.4344 10.5225 19.0439 11.7661 19.2903C13.0096 19.5367 14.2983 19.409 15.4693 18.9233C16.6403 18.4376 17.6411 17.6157 18.3452 16.5614C19.0492 15.5072 19.425 14.2679 19.425 13.0001C19.4267 12.1565 19.2615 11.3209 18.9391 10.5413C18.6166 9.76176 18.1432 9.05364 17.5461 8.45769C16.949 7.86174 16.2399 7.38972 15.4597 7.06878C14.6796 6.74785 13.8436 6.58433 13 6.58762ZM13 17.1626C12.1767 17.1626 11.372 16.9185 10.6874 16.4611C10.0029 16.0037 9.4694 15.3536 9.15435 14.593C8.8393 13.8324 8.75687 12.9955 8.91748 12.1881C9.07809 11.3806 9.47453 10.6389 10.0567 10.0568C10.6388 9.47466 11.3805 9.07822 12.1879 8.9176C12.9954 8.75699 13.8323 8.83943 14.5929 9.15448C15.3535 9.46952 16.0036 10.003 16.461 10.6876C16.9184 11.3721 17.1625 12.1769 17.1625 13.0001C17.1625 13.5468 17.0548 14.088 16.8456 14.593C16.6365 15.0981 16.3299 15.5569 15.9433 15.9435C15.5568 16.33 15.0979 16.6366 14.5929 16.8458C14.0879 17.055 13.5466 17.1626 13 17.1626Z" fill="white"/>
</svg>
