<svg width="218" height="124" viewBox="0 0 218 124" fill="none" xmlns="http://www.w3.org/2000/svg">
<path fill-rule="evenodd" clip-rule="evenodd" d="M40.4779 123.741C40.2837 123.223 40.0912 122.704 39.916 122.204C39.7408 121.703 39.5656 121.203 39.372 120.684H33.8652L32.7604 123.741H30.9883C31.4616 122.48 31.9003 121.306 32.3042 120.218C32.7072 119.148 33.1108 118.129 33.514 117.162C33.9004 116.195 34.2861 115.263 34.6718 114.382C35.058 113.502 35.4614 112.639 35.8819 111.775H37.4431C37.8638 112.639 38.2668 113.502 38.6534 114.382C39.0393 115.263 39.4248 116.195 39.828 117.162C40.2146 118.129 40.6176 119.148 41.0208 120.218C41.4242 121.306 41.8622 122.48 42.3362 123.741H40.4779V123.741ZM38.8814 119.303C38.513 118.302 38.1446 117.335 37.776 116.385C37.4081 115.453 37.0221 114.555 36.6187 113.692C36.215 114.555 35.8288 115.453 35.4614 116.385C35.0923 117.335 34.7244 118.302 34.3565 119.303H38.8814ZM51.9276 117.853H53.6299V123.447C53.4888 123.499 53.296 123.551 53.0328 123.603C52.7705 123.655 52.4541 123.724 52.1205 123.776C51.7701 123.827 51.3847 123.879 50.9817 123.931C50.5773 123.966 50.1566 123.983 49.7361 123.983C48.8765 123.983 48.1044 123.844 47.4029 123.568C46.7016 123.292 46.1052 122.895 45.5961 122.36C45.0883 121.824 44.7017 121.185 44.4386 120.408C44.1585 119.631 44.0174 118.75 44.0174 117.749C44.0174 116.748 44.1751 115.85 44.4914 115.073C44.79 114.296 45.2107 113.657 45.7372 113.121C46.2626 112.587 46.8772 112.189 47.5956 111.913C48.2981 111.637 49.0519 111.499 49.858 111.499C50.4024 111.499 50.8934 111.533 51.3321 111.602C51.7528 111.671 52.1205 111.757 52.4193 111.844C52.7177 111.93 52.9807 112.034 53.1736 112.12C53.3661 112.206 53.4888 112.276 53.5591 112.327L53.0157 113.726C52.6821 113.502 52.2266 113.329 51.6648 113.174C51.1039 113.036 50.5248 112.966 49.9456 112.966C49.3322 112.966 48.7711 113.07 48.2628 113.295C47.7542 113.518 47.3155 113.829 46.9646 114.244C46.5964 114.658 46.3154 115.159 46.1229 115.747C45.9302 116.351 45.8244 117.007 45.8244 117.749C45.8244 118.457 45.9124 119.114 46.0876 119.701C46.2446 120.287 46.5081 120.788 46.8597 121.203C47.1924 121.634 47.6308 121.962 48.1397 122.187C48.6482 122.412 49.2446 122.532 49.9286 122.532C50.4199 122.532 50.8406 122.497 51.192 122.446C51.5246 122.394 51.7701 122.36 51.9276 122.308V117.853L51.9276 117.853ZM57.1533 123.741V111.775H64.5722V113.208H58.8542V116.765H63.9407V118.164H58.8542V122.308H65.0104V123.741H57.1533ZM60.8543 107.769L63.239 110.238L62.555 110.998L60.8543 109.478L59.1525 110.998L58.4685 110.238L60.8543 107.769H60.8543ZM76.3569 123.741C76.0934 123.309 75.8128 122.843 75.4799 122.308C75.1461 121.773 74.7779 121.22 74.3918 120.65C74.0061 120.08 73.6029 119.511 73.1997 118.923C72.7785 118.336 72.3575 117.766 71.9541 117.214C71.5511 116.678 71.1472 116.161 70.762 115.677C70.3756 115.194 70.025 114.762 69.6916 114.4V123.741H68.026V111.775H69.3765C69.9194 112.345 70.5167 113.018 71.1472 113.778C71.7611 114.555 72.3923 115.331 73.0072 116.143C73.6206 116.955 74.1993 117.766 74.7431 118.544C75.2869 119.32 75.7432 120.028 76.1111 120.633V111.775H77.7779V123.741H76.3569H76.3569ZM86.8792 124C86.0186 124 85.2479 123.862 84.5462 123.585C83.8444 123.309 83.2473 122.911 82.7394 122.377C82.2304 121.841 81.8452 121.185 81.5819 120.408C81.3011 119.631 81.1612 118.75 81.1612 117.749C81.1612 116.748 81.3186 115.85 81.6347 115.073C81.9325 114.296 82.3533 113.657 82.8796 113.121C83.4059 112.587 84.0198 112.189 84.7211 111.913C85.4231 111.637 86.1767 111.499 86.9663 111.499C87.4748 111.499 87.9313 111.533 88.3345 111.602C88.738 111.671 89.0886 111.757 89.3864 111.844C89.685 111.93 89.9128 112.034 90.1055 112.12C90.2987 112.206 90.4213 112.276 90.4919 112.327L90.0011 113.709C89.8955 113.639 89.7378 113.57 89.5448 113.484C89.3512 113.398 89.1232 113.329 88.8786 113.243C88.6151 113.156 88.3516 113.088 88.0535 113.036C87.7559 112.984 87.44 112.966 87.1413 112.966C86.4928 112.966 85.9142 113.07 85.4051 113.295C84.8968 113.518 84.4581 113.829 84.0902 114.244C83.7212 114.658 83.458 115.159 83.2653 115.747C83.0725 116.351 82.9674 117.007 82.9674 117.749C82.9674 118.457 83.0548 119.114 83.2302 119.701C83.3884 120.287 83.6514 120.788 83.9843 121.203C84.3181 121.634 84.7569 121.962 85.2654 122.187C85.7733 122.412 86.3529 122.532 87.0366 122.532C87.8253 122.532 88.4747 122.446 88.9833 122.29C89.4921 122.135 89.8777 121.98 90.1408 121.858L90.5795 123.24C90.4919 123.292 90.3515 123.36 90.1408 123.447C89.9306 123.534 89.6673 123.62 89.3512 123.707C89.0358 123.793 88.6679 123.862 88.2462 123.914C87.8253 123.966 87.3693 124 86.878 124H86.8792L86.8792 124ZM93.3834 111.775H95.085V123.741H93.3834V111.775ZM107.08 123.741C106.887 123.223 106.694 122.704 106.519 122.204C106.344 121.703 106.167 121.203 105.975 120.684H100.468L99.3625 123.741H97.5909C98.0646 122.48 98.5031 121.306 98.9063 120.218C99.3102 119.148 99.7137 118.129 100.117 117.162C100.502 116.195 100.889 115.263 101.274 114.382C101.66 113.502 102.063 112.639 102.485 111.775H104.045C104.467 112.639 104.87 113.502 105.255 114.382C105.642 115.263 106.027 116.195 106.431 117.162C106.817 118.129 107.22 119.148 107.624 120.218C108.027 121.306 108.465 122.48 108.939 123.741H107.08V123.741ZM105.483 119.303C105.116 118.302 104.748 117.335 104.379 116.385C104.011 115.453 103.625 114.555 103.221 113.692C102.818 114.555 102.432 115.453 102.063 116.385C101.695 117.335 101.328 118.302 100.959 119.303H105.483ZM130.382 117.749C130.382 118.785 130.224 119.683 129.891 120.442C129.558 121.22 129.102 121.841 128.506 122.342C127.91 122.843 127.19 123.223 126.366 123.464C125.542 123.724 124.629 123.844 123.629 123.844C123.139 123.844 122.595 123.827 122.017 123.793C121.42 123.741 120.876 123.672 120.403 123.551V111.948C120.876 111.826 121.42 111.757 122.017 111.706C122.595 111.671 123.139 111.654 123.629 111.654C124.629 111.654 125.542 111.775 126.366 112.016C127.191 112.276 127.91 112.639 128.506 113.139C129.102 113.639 129.558 114.278 129.891 115.038C130.224 115.815 130.382 116.713 130.382 117.749ZM123.77 122.377C125.384 122.377 126.594 121.962 127.383 121.151C128.172 120.339 128.576 119.217 128.576 117.749C128.576 116.281 128.172 115.142 127.383 114.33C126.594 113.518 125.384 113.121 123.77 113.121C123.296 113.121 122.928 113.121 122.665 113.139C122.402 113.156 122.209 113.156 122.103 113.174V122.325C122.209 122.342 122.402 122.342 122.665 122.36C122.929 122.377 123.296 122.377 123.77 122.377ZM133.765 111.775H135.467V123.741H133.765V111.775ZM146.76 117.853H148.461V123.447C148.321 123.499 148.128 123.551 147.865 123.603C147.602 123.655 147.286 123.724 146.953 123.776C146.602 123.827 146.217 123.879 145.813 123.931C145.41 123.966 144.988 123.983 144.567 123.983C143.708 123.983 142.937 123.844 142.234 123.568C141.534 123.292 140.937 122.895 140.428 122.36C139.92 121.824 139.534 121.185 139.271 120.408C138.99 119.631 138.85 118.75 138.85 117.749C138.85 116.748 139.008 115.85 139.323 115.073C139.622 114.296 140.043 113.657 140.569 113.121C141.094 112.587 141.709 112.189 142.429 111.913C143.13 111.637 143.884 111.499 144.691 111.499C145.234 111.499 145.725 111.533 146.164 111.602C146.584 111.671 146.953 111.757 147.251 111.844C147.55 111.93 147.813 112.034 148.005 112.12C148.198 112.206 148.321 112.276 148.391 112.327L147.847 113.726C147.514 113.502 147.058 113.329 146.498 113.174C145.935 113.036 145.357 112.966 144.778 112.966C144.164 112.966 143.603 113.07 143.095 113.295C142.586 113.518 142.147 113.829 141.795 114.244C141.428 114.658 141.147 115.159 140.954 115.747C140.762 116.351 140.656 117.007 140.656 117.749C140.657 118.457 140.744 119.114 140.919 119.701C141.078 120.287 141.34 120.788 141.691 121.203C142.025 121.634 142.463 121.962 142.971 122.187C143.48 122.412 144.076 122.532 144.761 122.532C145.252 122.532 145.672 122.497 146.023 122.446C146.357 122.394 146.602 122.36 146.76 122.308V117.853L146.76 117.853ZM151.985 111.775H153.686V123.741H151.985V111.775ZM165.681 111.775V113.225H161.858V123.741H160.156V113.225H156.332V111.775H165.681ZM175.326 123.741C175.133 123.223 174.94 122.704 174.765 122.204C174.59 121.703 174.414 121.203 174.221 120.684H168.713L167.608 123.741H165.837C166.311 122.48 166.749 121.306 167.153 120.218C167.557 119.148 167.959 118.129 168.363 117.162C168.749 116.195 169.134 115.263 169.52 114.382C169.906 113.502 170.31 112.639 170.73 111.775H172.292C172.712 112.639 173.116 113.502 173.501 114.382C173.887 115.263 174.274 116.195 174.677 117.162C175.063 118.129 175.467 119.148 175.87 120.218C176.273 121.306 176.712 122.48 177.185 123.741H175.326L175.326 123.741ZM173.731 119.303C173.362 118.302 172.993 117.335 172.624 116.385C172.257 115.453 171.87 114.555 171.467 113.692C171.064 114.555 170.678 115.453 170.31 116.385C169.941 117.335 169.573 118.302 169.204 119.303H173.731ZM187.005 122.29V123.741H179.691V111.775H181.392V122.29H187.005V122.29Z" fill="white"/>
<path fill-rule="evenodd" clip-rule="evenodd" d="M81.3491 44.9124C82.9645 48.6762 84.8137 51.8328 86.7532 54.5646C86.8393 54.6851 86.9245 54.8046 87.0107 54.924L85.6146 55.0967C80.6125 52.7845 69.5363 46.8626 64.089 38.6269C57.5166 28.6907 58.9053 18.6198 64.5582 15.6738C67.8515 13.9575 73.282 15.6355 74.0442 20.1797C74.0442 20.1797 73.282 19.1973 71.6385 19.6018C69.9961 20.0063 69.1528 22.8099 70.7584 24.223C72.4209 25.6865 74.7484 25.4942 75.5704 23.7611C75.592 23.7148 75.6143 23.6626 75.6364 23.6052C75.73 23.4389 75.808 23.2602 75.8723 23.0719C75.9249 22.9167 75.9673 22.7544 76.0005 22.5861C76.0521 23.3164 76.1147 24.0647 76.1932 24.831C76.4116 26.9756 76.7423 29.2547 77.2218 31.6311C78.0671 35.8212 79.3753 40.3148 81.3491 44.9124ZM133.867 50.3027C134.814 48.6467 135.718 46.8522 136.559 44.8933C138.533 40.2957 139.841 35.802 140.686 31.612C141.165 29.2355 141.495 26.9572 141.714 24.8125C141.848 23.4991 141.94 22.2362 141.998 21.0317C142.008 22.1566 142.185 23.091 142.382 23.6056C142.404 23.6626 142.425 23.7148 142.447 23.7611C143.269 25.4942 145.596 25.6865 147.259 24.223C148.865 22.8099 148.022 20.0063 146.379 19.6018C144.736 19.1973 143.973 20.1797 143.973 20.1797C144.736 15.6355 150.166 13.9575 153.459 15.6737C159.112 18.6198 160.501 28.6907 153.929 38.6268C151.011 43.0378 146.478 46.7851 142.129 49.6697L133.867 50.3027V50.3027ZM149.956 49.0706C150.857 48.3813 151.765 47.608 152.685 46.727C156.691 42.8923 161.405 37.2539 162.262 30.2817C163.399 21.0334 158.647 11.3103 150.662 11.9189C144.219 12.4099 142.341 16.6087 142.043 19.9276C142.296 12.2552 141.217 7.22942 141.217 7.22942C140.772 6.75169 140.226 6.30371 139.594 5.88291C138.683 5.27734 137.594 4.72943 136.377 4.23444C134.943 3.65202 133.33 3.14193 131.618 2.69844C124.941 0.967262 116.754 0.234601 111.787 0.0495918C110.498 0.001628 109.426 -0.00995217 108.654 0.00800493C106.01 -0.0331125 101.381 0.199136 96.4031 0.830451C93.4916 1.19975 90.46 1.70513 87.6363 2.37282C86.9056 2.54555 86.1889 2.72866 85.4922 2.92333C84.7182 3.13952 83.9696 3.36966 83.2518 3.61372C81.7259 4.13352 80.3437 4.71853 79.1807 5.37465C78.1703 5.94431 77.3243 6.56735 76.6914 7.24853C76.6914 7.24853 75.7062 11.8315 75.8375 18.927C75.2629 15.8186 73.1646 12.3617 67.3552 11.9189C59.3699 11.3103 54.6181 21.0333 55.755 30.2817C56.613 37.2539 61.3259 42.8923 65.3317 46.727C70.551 51.7234 75.3783 53.2412 80.7044 55.7058L36.5474 61.1825L109.256 55.6131L181.47 46.6563L149.956 49.0705V49.0706Z" fill="#F8AF30"/>
<path fill-rule="evenodd" clip-rule="evenodd" d="M81.3491 44.9124C82.9645 48.6762 84.8137 51.8328 86.7532 54.5646C86.8393 54.6851 86.9245 54.8046 87.0107 54.924L85.6146 55.0967C80.6125 52.7845 69.5363 46.8626 64.089 38.6269C57.5166 28.6907 58.9053 18.6198 64.5582 15.6738C67.8515 13.9575 73.282 15.6355 74.0442 20.1797C74.0442 20.1797 73.282 19.1973 71.6385 19.6018C69.9961 20.0063 69.1528 22.8099 70.7584 24.223C72.4209 25.6865 74.7484 25.4942 75.5704 23.7611C75.592 23.7148 75.6143 23.6626 75.6364 23.6052C75.73 23.4389 75.808 23.2602 75.8723 23.0719C75.9249 22.9167 75.9673 22.7544 76.0005 22.5861C76.0521 23.3164 76.1147 24.0647 76.1932 24.831C76.4116 26.9756 76.7423 29.2547 77.2218 31.6311C78.0671 35.8212 79.3753 40.3148 81.3491 44.9124ZM133.867 50.3027C134.814 48.6467 135.718 46.8522 136.559 44.8933C138.533 40.2957 139.841 35.802 140.686 31.612C141.165 29.2355 141.495 26.9572 141.714 24.8125C141.848 23.4991 141.94 22.2362 141.998 21.0317C142.008 22.1566 142.185 23.091 142.382 23.6056C142.404 23.6626 142.425 23.7148 142.447 23.7611C143.269 25.4942 145.596 25.6865 147.259 24.223C148.865 22.8099 148.022 20.0063 146.379 19.6018C144.736 19.1973 143.973 20.1797 143.973 20.1797C144.736 15.6355 150.166 13.9575 153.459 15.6737C159.112 18.6198 160.501 28.6907 153.929 38.6268C151.011 43.0378 146.478 46.7851 142.129 49.6697L133.867 50.3027V50.3027ZM149.956 49.0706C150.857 48.3813 151.765 47.608 152.685 46.727C156.691 42.8923 161.405 37.2539 162.262 30.2817C163.399 21.0334 158.647 11.3103 150.662 11.9189C144.219 12.4099 142.341 16.6087 142.043 19.9276C142.296 12.2552 141.217 7.22942 141.217 7.22942C140.772 6.75169 140.226 6.30371 139.594 5.88291C138.683 5.27734 137.594 4.72943 136.377 4.23444C134.943 3.65202 133.33 3.14193 131.618 2.69844C124.941 0.967262 116.754 0.234601 111.787 0.0495918C110.498 0.001628 109.426 -0.00995217 108.654 0.00800493C106.01 -0.0331125 101.381 0.199136 96.4031 0.830451C93.4916 1.19975 90.46 1.70513 87.6363 2.37282C86.9056 2.54555 86.1889 2.72866 85.4922 2.92333C84.7182 3.13952 83.9696 3.36966 83.2518 3.61372C81.7259 4.13352 80.3437 4.71853 79.1807 5.37465C78.1703 5.94431 77.3243 6.56735 76.6914 7.24853C76.6914 7.24853 75.7062 11.8315 75.8375 18.927C75.2629 15.8186 73.1646 12.3617 67.3552 11.9189C59.3699 11.3103 54.6181 21.0333 55.755 30.2817C56.613 37.2539 61.3259 42.8923 65.3317 46.727C70.551 51.7234 75.3783 53.2412 80.7044 55.7058L36.5474 61.1825L109.256 55.6131L181.47 46.6563L149.956 49.0705V49.0706Z" fill="#FEFEFE"/>
<path fill-rule="evenodd" clip-rule="evenodd" d="M178.161 47.0669L177.921 46.9285L181.47 46.6565L178.161 47.0669Z" fill="#F6BF2F"/>
<path fill-rule="evenodd" clip-rule="evenodd" d="M177.921 46.9283L178.16 47.0668L174.873 47.4748V47.1618L177.921 46.9283Z" fill="#FDD028"/>
<path fill-rule="evenodd" clip-rule="evenodd" d="M159.075 16.1641L158.407 16.5513V15.3213C158.639 15.5897 158.861 15.8709 159.075 16.1641V16.1641Z" fill="#FDD028"/>
<path fill-rule="evenodd" clip-rule="evenodd" d="M159.884 17.4073L158.407 16.5513L159.075 16.1641C159.362 16.5581 159.632 16.9733 159.884 17.4073H159.884Z" fill="#FBDA25"/>
<path fill-rule="evenodd" clip-rule="evenodd" d="M158.407 16.5513L159.884 17.4073C161.927 20.9181 162.83 25.6593 162.262 30.2817C162.11 31.5146 161.838 32.7052 161.47 33.8516L158.407 35.6257V16.5513Z" fill="#FBDA25"/>
<path fill-rule="evenodd" clip-rule="evenodd" d="M160.317 36.7323L158.407 35.6259L161.47 33.8517C161.152 34.8457 160.762 35.8066 160.317 36.7323Z" fill="#F8AF30"/>
<path fill-rule="evenodd" clip-rule="evenodd" d="M158.407 35.6259L160.317 36.7323C159.756 37.8967 159.108 39.0055 158.407 40.0564V35.6259ZM170.895 47.4669L169.793 48.105L158.407 49.5168V48.4231L170.895 47.4669Z" fill="#F6BF2F"/>
<path fill-rule="evenodd" clip-rule="evenodd" d="M169.793 48.1049L170.895 47.4668L174.873 47.1617V47.4748L169.793 48.1049Z" fill="#FBDA25"/>
<path fill-rule="evenodd" clip-rule="evenodd" d="M150.442 11.938L158.407 16.5512L156.068 17.9062C155.349 16.9609 154.473 16.2023 153.459 15.6737C150.166 13.9574 144.736 15.6354 143.973 20.1797C143.973 20.1797 144.736 19.1972 146.379 19.6017C147.483 19.8734 148.226 21.2287 148.107 22.5171L143.791 25.0171C143.218 24.7945 142.738 24.3749 142.448 23.7611C142.425 23.7147 142.404 23.6625 142.382 23.6056C142.185 23.091 142.008 22.1565 141.999 21.0316C141.982 21.3731 141.963 21.719 141.941 22.0696V13.2172C142.064 15.0998 142.128 17.3661 142.043 19.9275C142.338 16.6469 144.177 12.5072 150.442 11.938V11.938Z" fill="#FBDA25"/>
<path fill-rule="evenodd" clip-rule="evenodd" d="M158.407 35.6257L156.266 34.386C159.232 27.7246 158.781 21.4785 156.067 17.9063L158.407 16.5513V35.6257ZM143.791 25.0171L148.106 22.5171C148.049 23.1466 147.785 23.7592 147.259 24.223C146.185 25.1683 144.834 25.4223 143.791 25.0171Z" fill="#FBDA25"/>
<path fill-rule="evenodd" clip-rule="evenodd" d="M156.266 34.3861L158.407 35.6258L154.346 37.9784C155.099 36.7765 155.738 35.5748 156.266 34.3861Z" fill="#F8AF30"/>
<path fill-rule="evenodd" clip-rule="evenodd" d="M151.037 50.4309L145.533 47.2436C148.73 44.7878 151.771 41.8892 153.929 38.627C154.072 38.4108 154.209 38.1946 154.345 37.9784L158.407 35.6259V40.0564C156.669 42.6566 154.597 44.8974 152.685 46.7271C151.765 47.6082 150.857 48.3815 149.955 49.0707L158.407 48.4231V49.5168L151.037 50.4309L151.037 50.4309Z" fill="#F8AF30"/>
<path fill-rule="evenodd" clip-rule="evenodd" d="M145.533 47.2434L151.038 50.4307L141.941 51.5592V49.6841L142.129 49.6697C143.262 48.9186 144.408 48.1082 145.533 47.2434L145.533 47.2434Z" fill="#FDD028"/>
<path fill-rule="evenodd" clip-rule="evenodd" d="M141.253 7.41184L125.475 16.5513V1.42236C127.573 1.76991 129.66 2.19072 131.618 2.69845C133.33 3.14194 134.944 3.65205 136.377 4.23445C137.595 4.72944 138.684 5.27737 139.594 5.88292C140.226 6.30372 140.773 6.75169 141.217 7.22943L141.253 7.41184Z" fill="#FBE524"/>
<path fill-rule="evenodd" clip-rule="evenodd" d="M141.597 25.8895L125.475 16.5513L141.253 7.41187C141.37 8.01484 141.737 10.0858 141.941 13.2173V22.0697C141.885 22.956 141.811 23.8713 141.715 24.8126C141.678 25.1679 141.64 25.5266 141.597 25.8895V25.8895Z" fill="#FBE524"/>
<path fill-rule="evenodd" clip-rule="evenodd" d="M125.475 16.5513L141.597 25.8894L141.545 26.3183L125.475 35.6257V16.5513Z" fill="#FDD028"/>
<path fill-rule="evenodd" clip-rule="evenodd" d="M137.497 42.5887L125.475 35.6258L141.545 26.3184C141.336 28.0138 141.055 29.784 140.686 31.612C139.983 35.0989 138.958 38.7964 137.497 42.5887Z" fill="#FBE524"/>
<path fill-rule="evenodd" clip-rule="evenodd" d="M125.475 35.6259L137.497 42.5888C137.203 43.3534 136.89 44.1217 136.559 44.8934C135.833 46.5846 135.06 48.1525 134.252 49.6153L127.887 53.3023L125.475 53.6014V35.6259L125.475 35.6259Z" fill="#FDD028"/>
<path fill-rule="evenodd" clip-rule="evenodd" d="M127.887 53.3023L134.252 49.6152C134.124 49.8465 133.996 50.0762 133.867 50.3028L141.941 49.6842V51.5593L127.887 53.3022V53.3023Z" fill="#F6BF2F"/>
<path fill-rule="evenodd" clip-rule="evenodd" d="M119.967 0.667714L109.009 7.01373V0.00212796C109.742 -0.00589209 110.685 0.00850488 111.787 0.0496223C114.01 0.132561 116.878 0.325121 119.967 0.667714Z" fill="#FBE524"/>
<path fill-rule="evenodd" clip-rule="evenodd" d="M125.475 16.5513L109.009 7.01374L119.967 0.667725C121.756 0.865703 123.62 1.11499 125.475 1.42237V16.5513Z" fill="#F6BF2F"/>
<path fill-rule="evenodd" clip-rule="evenodd" d="M109.009 7.01367L125.475 16.5512L109.009 26.0888V7.01367Z" fill="#F8AF30"/>
<path fill-rule="evenodd" clip-rule="evenodd" d="M125.475 35.6257L109.009 26.0889L125.475 16.5513V35.6257Z" fill="#FBE524"/>
<path fill-rule="evenodd" clip-rule="evenodd" d="M109.009 26.0889L125.475 35.6257L109.009 45.1626V26.0889Z" fill="#FDD028"/>
<path fill-rule="evenodd" clip-rule="evenodd" d="M123.914 53.7949L109.009 45.1627L125.475 35.6259V53.6014L123.914 53.7949Z" fill="#FBE524"/>
<path fill-rule="evenodd" clip-rule="evenodd" d="M109.009 45.1626L123.914 53.7948L109.256 55.6132L109.009 55.6323V45.1626Z" fill="#FDD028"/>
<path fill-rule="evenodd" clip-rule="evenodd" d="M109.009 7.01367L98.0029 0.639767C102.359 0.152324 106.295 -0.0286553 108.653 0.00798265L109.009 0.0020752V7.01367Z" fill="#FDD028"/>
<path fill-rule="evenodd" clip-rule="evenodd" d="M98.0035 0.639771L109.009 7.01368L92.543 16.5513V1.39489C93.8342 1.17942 95.1299 0.991557 96.4029 0.830433C96.9407 0.76191 97.4755 0.698825 98.0035 0.639771Z" fill="#FBDA25"/>
<path fill-rule="evenodd" clip-rule="evenodd" d="M109.009 26.0888L92.543 16.5512L109.009 7.01367V26.0888Z" fill="#FBE524"/>
<path fill-rule="evenodd" clip-rule="evenodd" d="M92.543 16.5513L109.009 26.0889L92.543 35.6257V16.5513Z" fill="#F6BF2F"/>
<path fill-rule="evenodd" clip-rule="evenodd" d="M109.009 45.1626L92.543 35.6257L109.009 26.0889V45.1626Z" fill="#F8AF30"/>
<path fill-rule="evenodd" clip-rule="evenodd" d="M92.543 35.6259L109.009 45.1627L92.543 54.6992V35.6259Z" fill="#FDD028"/>
<path fill-rule="evenodd" clip-rule="evenodd" d="M95.8886 56.6374L92.543 54.699L109.009 45.1626V55.6323L95.8886 56.6374Z" fill="#FBDA25"/>
<path fill-rule="evenodd" clip-rule="evenodd" d="M92.543 54.699L95.8886 56.6373L92.543 56.8935V54.699Z" fill="#F8AF30"/>
<path fill-rule="evenodd" clip-rule="evenodd" d="M92.5428 16.5513L76.6689 7.35675L76.691 7.24854C77.3239 6.56736 78.1699 5.94432 79.1803 5.37466C80.3433 4.71854 81.7255 4.13353 83.2514 3.61373C83.9693 3.36967 84.7178 3.13953 85.4918 2.92334C86.1885 2.72865 86.9052 2.54554 87.636 2.37283C89.2248 1.99716 90.8805 1.67253 92.5428 1.3949V16.5513Z" fill="#F8AF30"/>
<path fill-rule="evenodd" clip-rule="evenodd" d="M76.6692 7.35681L92.543 16.5513L76.3159 25.9498C76.2713 25.5729 76.2307 25.2003 76.1931 24.831C76.1494 24.4074 76.1115 23.9889 76.0767 23.5762V11.8065C76.2946 9.34622 76.5874 7.7684 76.6692 7.35681Z" fill="#FBDA25"/>
<path fill-rule="evenodd" clip-rule="evenodd" d="M92.5425 35.6257L76.3512 26.2481L76.3154 25.9497L92.5425 16.5513V35.6257Z" fill="#FDD028"/>
<path fill-rule="evenodd" clip-rule="evenodd" d="M76.3511 26.2482L92.5424 35.6258L80.4236 42.6443C78.9553 38.8391 77.9271 35.1292 77.2211 31.6312C76.846 29.7712 76.5618 27.9708 76.3511 26.2482Z" fill="#F8AF30"/>
<path fill-rule="evenodd" clip-rule="evenodd" d="M92.5431 54.6991L83.588 49.5127C82.8051 48.0852 82.0549 46.5567 81.349 44.9125C81.0231 44.1531 80.7154 43.3968 80.4243 42.6443L92.5431 35.6259V54.6991Z" fill="#FBDA25"/>
<path fill-rule="evenodd" clip-rule="evenodd" d="M83.5879 49.5127L92.5431 54.6991L88.1775 57.2279L76.0767 58.1548V56.2798L80.7043 55.7059C79.1259 54.9755 77.5908 54.3277 76.0767 53.6484V49.7946C79.7799 52.2317 83.3302 54.0406 85.6145 55.0967L87.0106 54.924C86.9244 54.8047 86.8392 54.6851 86.753 54.5646C85.661 53.0263 84.5976 51.3537 83.5879 49.5127L83.5879 49.5127Z" fill="#FBE524"/>
<path fill-rule="evenodd" clip-rule="evenodd" d="M88.1772 57.2278L92.5429 54.699V56.8935L88.1772 57.2278Z" fill="#F6BF2F"/>
<path fill-rule="evenodd" clip-rule="evenodd" d="M158.407 16.5512L150.442 11.938L150.662 11.9189C153.795 11.6802 156.43 13.0324 158.407 15.3212V16.5512Z" fill="#FBE524"/>
<path fill-rule="evenodd" clip-rule="evenodd" d="M67.575 11.938L59.6104 16.5512V15.3212C61.5872 13.0324 64.2219 11.6802 67.3547 11.9189L67.575 11.938Z" fill="#FDD028"/>
<path fill-rule="evenodd" clip-rule="evenodd" d="M74.2263 25.0178L69.9099 22.5173C69.7918 21.2289 70.5342 19.8737 71.6379 19.602C73.2814 19.1975 74.0436 20.1799 74.0436 20.1799C73.2814 15.6357 67.851 13.9577 64.5577 15.6739C63.5439 16.2025 62.668 16.9612 61.9494 17.9065L59.6104 16.5515L67.575 11.9382C73.2171 12.4507 75.2694 15.8582 75.837 18.9272C75.7851 16.1163 75.9085 13.7004 76.0762 11.8066V23.5763C76.0484 23.2424 76.0232 22.9126 75.9999 22.5863C75.9668 22.7545 75.9243 22.9169 75.8718 23.0721C75.8074 23.2604 75.7294 23.439 75.6358 23.6054C75.6138 23.6628 75.5914 23.715 75.5698 23.7613C75.2787 24.3751 74.7987 24.7952 74.2263 25.0178V25.0178Z" fill="#F6BF2F"/>
<path fill-rule="evenodd" clip-rule="evenodd" d="M59.6104 16.5513L61.9494 17.9063C59.2352 21.478 58.7848 27.7246 61.7509 34.386L59.6104 35.6257V16.5513ZM69.9099 22.5172L74.2263 25.0176C73.1826 25.4228 71.8316 25.1684 70.7579 24.223C70.2311 23.7592 69.9678 23.1461 69.9099 22.5172Z" fill="#FBDA25"/>
<path fill-rule="evenodd" clip-rule="evenodd" d="M63.6724 37.9784L59.6104 35.6258L61.7509 34.3861C62.2804 35.5748 62.919 36.7765 63.6723 37.9784H63.6724Z" fill="#F6BF2F"/>
<path fill-rule="evenodd" clip-rule="evenodd" d="M59.6104 35.6259L63.6724 37.9784C63.8077 38.1946 63.9452 38.4108 64.0885 38.627C66.2459 41.8892 69.2867 44.7885 72.4835 47.2436L68.6152 49.4839C67.5328 48.6938 66.4413 47.7892 65.3312 46.7271C63.4204 44.8974 61.348 42.6578 59.6104 40.0576V35.6259V35.6259Z" fill="#F8AF30"/>
<path fill-rule="evenodd" clip-rule="evenodd" d="M66.8022 58.8651L64.7622 57.6828L76.0765 56.2796V58.1547L66.8022 58.8651ZM68.6154 49.4837L72.4837 47.2434C73.6724 48.1564 74.8818 49.0079 76.0765 49.7944V53.6483C73.5678 52.5227 71.1159 51.3089 68.6154 49.4837L68.6154 49.4837Z" fill="#FDD028"/>
<path fill-rule="evenodd" clip-rule="evenodd" d="M64.762 57.6829L66.8019 58.8651L59.6104 59.4159V58.3222L64.762 57.6829Z" fill="#F8AF30"/>
<path fill-rule="evenodd" clip-rule="evenodd" d="M59.6108 16.5513L58.9424 16.1641C59.1562 15.8709 59.3789 15.5897 59.6108 15.3213V16.5513V16.5513Z" fill="#FBE524"/>
<path fill-rule="evenodd" clip-rule="evenodd" d="M58.9423 16.1641L59.6107 16.5513L58.1318 17.408C58.3843 16.9733 58.6553 16.5581 58.9423 16.1641Z" fill="#FDD028"/>
<path fill-rule="evenodd" clip-rule="evenodd" d="M59.6103 35.6257L56.5457 33.8509C56.1785 32.7052 55.9064 31.5139 55.7544 30.2817C55.1863 25.6593 56.089 20.918 58.1314 17.408L59.6103 16.5513V35.6257H59.6103Z" fill="#FDD028"/>
<path fill-rule="evenodd" clip-rule="evenodd" d="M56.5464 33.8508L59.6109 35.6257L57.7005 36.7322C57.2553 35.8065 56.8651 34.8455 56.5464 33.8508Z" fill="#FDD028"/>
<path fill-rule="evenodd" clip-rule="evenodd" d="M57.7002 36.7323L59.6106 35.6259V40.0576C58.9081 39.0067 58.2606 37.8974 57.7002 36.7323Z" fill="#FBE524"/>
<path fill-rule="evenodd" clip-rule="evenodd" d="M51.6523 59.3094L50.2272 60.1348L43.145 60.6772V60.3642L51.6523 59.3094Z" fill="#FBDA25"/>
<path fill-rule="evenodd" clip-rule="evenodd" d="M50.2275 60.1347L51.6527 59.3094L59.6108 58.3223V59.416L50.2275 60.1347Z" fill="#F8AF30"/>
<path fill-rule="evenodd" clip-rule="evenodd" d="M37.7171 61.0928L37.6382 61.047L43.1454 60.3641V60.6772L37.7171 61.0928Z" fill="#FDD028"/>
<path fill-rule="evenodd" clip-rule="evenodd" d="M37.6382 61.047L37.7171 61.0928L36.5474 61.1826L37.6382 61.047Z" fill="#F8AF30"/>
<path fill-rule="evenodd" clip-rule="evenodd" d="M10.8861 66.3622C16.277 66.3622 20.4636 67.2896 23.3426 69.1443C26.2212 71.0505 27.6866 74.0907 27.6866 78.3672C27.6866 82.6439 26.2212 85.7351 23.2903 87.6415C20.3592 89.5478 16.1721 90.5267 10.7292 90.5267H8.16503V102.481H0V67.2896C1.78007 66.929 3.6636 66.7227 5.6527 66.5685C7.64158 66.4137 9.36838 66.3622 10.8861 66.3622V66.3622ZM11.4096 73.2148C10.8336 73.2148 10.2581 73.2148 9.68206 73.2666C9.10679 73.3181 8.58358 73.3181 8.16455 73.3696L8.16503 83.6741H10.7292C13.5554 83.6741 15.7012 83.3135 17.1139 82.5409C18.5277 81.7676 19.26 80.3767 19.26 78.3162C19.26 77.3366 19.103 76.5122 18.7365 75.8429C18.3703 75.1728 17.8469 74.6575 17.1662 74.2454C16.4865 73.8849 15.6487 73.5754 14.6541 73.4213C13.6595 73.2666 12.6127 73.2148 11.4096 73.2148L11.4096 73.2148Z" fill="white"/>
<path fill-rule="evenodd" clip-rule="evenodd" d="M40.5819 66.3622C46.0248 66.3622 50.2116 67.2896 53.0897 69.1958C55.9682 71.1023 57.4339 74.0907 57.4339 78.1096C57.4339 80.6344 56.8586 82.6439 55.7069 84.1894C54.503 85.7866 52.8285 87.0235 50.6301 87.8993C51.3629 88.7752 52.1477 89.8058 52.9327 90.9389C53.7182 92.1241 54.5553 93.3094 55.3408 94.5459C56.1254 95.8338 56.8586 97.1222 57.5911 98.4616C58.324 99.8528 59.0035 101.192 59.632 102.481H50.525C49.8453 101.295 49.1647 100.111 48.4845 98.9254C47.8041 97.74 47.1235 96.5554 46.3908 95.4215C45.6578 94.2883 44.9779 93.2062 44.2449 92.1758C43.5648 91.1967 42.8321 90.2693 42.1512 89.4452L38.1218 89.4445V102.481H29.957V67.2896C31.7369 66.929 33.5686 66.7227 35.5046 66.5685C37.3889 66.4137 39.0638 66.3622 40.5818 66.3622H40.5819ZM41.0527 73.2148C40.4767 73.2148 39.9533 73.2148 39.4824 73.2665C39.0115 73.318 38.5406 73.318 38.1219 73.3696V83.0562H40.4247C43.5127 83.0562 45.7104 82.6957 47.0191 81.9223C48.3271 81.1497 49.0073 79.8614 49.0073 78.0581C49.008 76.3066 48.3271 75.0698 47.0191 74.2969C45.6578 73.5753 43.669 73.2148 41.0527 73.2148H41.0527Z" fill="white"/>
<path fill-rule="evenodd" clip-rule="evenodd" d="M61.1177 102.481V66.7743H85.6118V73.5239H69.2822V80.5315H83.7794V87.1263H69.2822V95.7311H86.8152V102.481H61.1177Z" fill="white"/>
<path fill-rule="evenodd" clip-rule="evenodd" d="M98.715 66.7743C99.3433 67.9079 100.076 69.2991 100.914 70.948C101.698 72.648 102.588 74.4517 103.477 76.3582C104.368 78.3162 105.257 80.325 106.095 82.3344C106.984 84.3442 107.822 86.2504 108.607 88.0536C109.34 86.2504 110.177 84.3442 111.067 82.3344C111.904 80.325 112.793 78.3162 113.683 76.3582C114.573 74.4517 115.462 72.648 116.247 70.948C117.085 69.2991 117.818 67.9079 118.446 66.7743H125.878C126.244 69.1443 126.558 71.7722 126.872 74.7093C127.134 77.6461 127.396 80.7373 127.657 83.8804C127.867 87.0745 128.076 90.2694 128.285 93.4638C128.443 96.6584 128.599 99.6463 128.756 102.481H120.801C120.696 99.0285 120.54 95.2158 120.382 91.1453C120.225 87.0745 119.964 82.953 119.598 78.7797C118.969 80.2219 118.289 81.8194 117.504 83.5713C116.719 85.3231 115.986 87.0745 115.201 88.8267C114.468 90.5785 113.736 92.2274 113.055 93.8241C112.322 95.4216 111.747 96.8127 111.276 97.9464H105.571C105.048 96.8127 104.472 95.4216 103.74 93.8241C103.059 92.2274 102.326 90.5785 101.593 88.8267C100.808 87.0745 100.075 85.3231 99.2907 83.5713C98.558 81.8194 97.8255 80.2224 97.1972 78.7797C96.8312 82.953 96.5691 87.0745 96.4124 91.1453C96.2549 95.2157 96.0982 99.0285 95.9938 102.481H88.0386C88.1955 99.6463 88.3522 96.6585 88.562 93.4638C88.719 90.2694 88.9282 87.0745 89.1894 83.8804C89.3991 80.7373 89.6605 77.6461 89.9749 74.7093C90.2365 71.7722 90.5509 69.1443 90.9171 66.7743H98.715H98.715Z" fill="white"/>
<path fill-rule="evenodd" clip-rule="evenodd" d="M159.257 103.202C156.693 103.202 154.494 102.841 152.663 102.12C150.831 101.45 149.313 100.471 148.109 99.1827C146.906 97.9463 146.015 96.4521 145.44 94.7006C144.865 92.9999 144.55 91.0937 144.55 88.9809L144.551 66.7742H152.715V88.3113C152.715 89.754 152.872 90.9904 153.239 91.9693C153.552 92.9999 154.023 93.824 154.599 94.4426C155.175 95.1126 155.855 95.5762 156.693 95.8337C157.478 96.0915 158.367 96.2463 159.362 96.2463C161.35 96.2458 162.973 95.6279 164.229 94.4426C165.433 93.2579 166.06 91.1967 166.06 88.3113V66.7742H174.225V88.9809C174.225 91.0937 173.911 92.9999 173.336 94.7521C172.76 96.5036 171.818 97.998 170.614 99.2342C169.411 100.523 167.84 101.502 165.956 102.171C164.072 102.841 161.821 103.202 159.257 103.202H159.257Z" fill="white"/>
<path fill-rule="evenodd" clip-rule="evenodd" d="M187.958 66.7743C188.586 67.9079 189.319 69.2991 190.156 70.948C190.942 72.648 191.831 74.4517 192.721 76.3582C193.611 78.3162 194.5 80.325 195.337 82.3344C196.227 84.3442 197.065 86.2504 197.85 88.0536C198.583 86.2504 199.42 84.3442 200.309 82.3344C201.147 80.325 202.036 78.3162 202.926 76.3582C203.816 74.4517 204.706 72.648 205.491 70.948C206.328 69.2991 207.061 67.9079 207.689 66.7743H215.121C215.487 69.1443 215.801 71.7722 216.115 74.7093C216.377 77.6461 216.638 80.7373 216.9 83.8804C217.11 87.0745 217.319 90.2694 217.528 93.4638C217.686 96.6584 217.842 99.6463 218 102.481H210.044C209.939 99.0285 209.782 95.2158 209.626 91.1453C209.469 87.0745 209.207 82.953 208.84 78.7797C208.212 80.2219 207.532 81.8194 206.747 83.5713C205.962 85.3231 205.229 87.0745 204.444 88.8267C203.712 90.5785 202.979 92.2274 202.299 93.8241C201.566 95.4216 200.99 96.8127 200.519 97.9464H194.814C194.291 96.8127 193.715 95.4216 192.983 93.8241C192.302 92.2274 191.569 90.5785 190.837 88.8267C190.052 87.0745 189.319 85.3231 188.534 83.5713C187.801 81.8194 187.068 80.2224 186.44 78.7797C186.074 82.953 185.812 87.0745 185.655 91.1453C185.498 95.2157 185.341 99.0285 185.236 102.481H177.282C177.438 99.6463 177.595 96.6585 177.804 93.4638C177.962 90.2694 178.171 87.0745 178.433 83.8804C178.642 80.7373 178.903 77.6461 179.218 74.7093C179.48 71.7722 179.793 69.1443 180.16 66.7743H187.958Z" fill="white"/>
<path fill-rule="evenodd" clip-rule="evenodd" d="M140.448 75.546L132.283 76.5587V102.481H140.448V75.546Z" fill="white"/>
<path fill-rule="evenodd" clip-rule="evenodd" d="M132.283 74.5821L140.448 73.5697V66.7743H132.283V74.5821Z" fill="#FDD028"/>
</svg>
